<?xml version="1.0" encoding="utf-8"?>
<!-- Generator: Adobe Illustrator 16.0.3, SVG Export Plug-In . SVG Version: 6.00 Build 0)  -->
<!DOCTYPE svg PUBLIC "-//W3C//DTD SVG 1.1//EN" "http://www.w3.org/Graphics/SVG/1.1/DTD/svg11.dtd">
<svg version="1.1" id="Capa_1" xmlns="http://www.w3.org/2000/svg" xmlns:xlink="http://www.w3.org/1999/xlink" x="0px" y="0px"
	 width="351.759px" height="272.895px" viewBox="-3922.666 1151.097 351.759 272.895"
	 enable-background="new -3922.666 1151.097 351.759 272.895" xml:space="preserve">
<path opacity="0.4" fill-rule="evenodd" clip-rule="evenodd" fill="#D5C7EF" d="M-3630.383,1421.212
	c30.254,0,55.004-24.752,55.004-55.005l0,0c0-30.253-24.75-55.005-55.004-55.005l0,0c-12.791,0-23.256-10.466-23.256-23.256l0,0
	c0-12.793,10.465-23.258,23.256-23.258h2.77c13.298,0,24.178-10.881,24.178-24.18l0,0c0-13.3-10.88-24.18-24.178-24.18h-8.492
	c-5.178,0-9.414-4.236-9.414-9.414l0,0c0-5.178,4.236-9.414,9.414-9.414h6.238c3.574,0,6.498-2.924,6.498-6.496l0,0
	c0-3.573-2.924-6.497-6.498-6.497h-41.941c-5.614,0-10.208-4.594-10.208-10.208l0,0c0-5.615,4.594-10.209,10.208-10.209h12.542
	c3.573,0,6.496-2.924,6.496-6.498l0,0c0-3.572-2.924-6.496-6.496-6.496h-183.676c-4.662,0-8.478,3.816-8.478,8.479l0,0
	c0,4.661,3.815,8.477,8.478,8.477h12.862c7.327,0,13.321,5.995,13.321,13.32v0.002c0,7.325-5.994,13.32-13.321,13.32h-49.755
	c-4.663,0-8.478,3.814-8.478,8.478l0,0c0,4.663,3.815,8.477,8.478,8.477h8.141c6.756,0,12.284,5.528,12.284,12.284l0,0
	c0,6.756-5.528,12.284-12.284,12.284h-11.079c-17.353,0-31.551,14.197-31.551,31.552l0,0c0,17.352,14.198,31.551,31.551,31.551
	h3.612c16.689,0,30.348,13.656,30.348,30.348l0,0c0,16.691-13.658,30.348-30.348,30.348h-7.822
	c-16.829,0-30.597,13.77-30.597,30.599l0,0c0,16.829,13.769,30.599,30.597,30.599
	C-3799.913,1421.212-3717.452,1421.212-3630.383,1421.212L-3630.383,1421.212z M-3864.635,1168.052
	c-4.683,0-8.478-3.795-8.478-8.477s3.795-8.479,8.478-8.479s8.478,3.797,8.478,8.479S-3859.952,1168.052-3864.635,1168.052
	L-3864.635,1168.052z M-3611.635,1197.503c-3.588,0-6.498-2.91-6.498-6.498c0-3.589,2.91-6.497,6.498-6.497s6.498,2.908,6.498,6.497
	C-3605.137,1194.593-3608.047,1197.503-3611.635,1197.503z"/>
<g>
	<path fill-rule="evenodd" clip-rule="evenodd" fill="#4BB89F" d="M-3638.917,1384.38l2.651,3.32h12.052l2.652-3.32
		C-3612.038,1358.69-3648.44,1358.69-3638.917,1384.38z"/>
	<path fill-rule="evenodd" clip-rule="evenodd" fill="#7FC8B8" d="M-3635.484,1384.38l1.604,3.32h7.281l1.604-3.32
		C-3619.243,1358.69-3641.24,1358.69-3635.484,1384.38z"/>
	<g>
		<path fill-rule="evenodd" clip-rule="evenodd" fill="#A36E4E" d="M-3619.906,1382.245h-20.67c-0.716,0-1.301,0.586-1.301,1.301
			v5.905c0,0.716,0.585,1.302,1.301,1.302h20.67c0.718,0,1.302-0.586,1.302-1.302v-5.905
			C-3618.604,1382.831-3619.188,1382.245-3619.906,1382.245z"/>
		<polygon fill-rule="evenodd" clip-rule="evenodd" fill="#A36E4E" points="-3623.346,1387.05 -3637.135,1387.05 
			-3640.736,1390.753 -3637.794,1403.663 -3630.24,1403.663 -3622.687,1403.663 -3619.745,1390.753 		"/>
		<polygon fill-rule="evenodd" clip-rule="evenodd" fill="#794C34" points="-3640.736,1390.753 -3640.13,1393.298 
			-3620.351,1393.298 -3619.745,1390.753 		"/>
	</g>
	<g>
		<path fill-rule="evenodd" clip-rule="evenodd" fill="#4BB89F" d="M-3623.627,1368.851l-0.749,1.711l2.463,4.688l1.835,0.354
			C-3608.139,1374.06-3615.576,1359.896-3623.627,1368.851z"/>
		<path fill-rule="evenodd" clip-rule="evenodd" fill="#7FC8B8" d="M-3618.59,1373.38c6.157-2.835,3.584-7.789-2.22-4.396
			C-3625.715,1371.854-3623.708,1375.735-3618.59,1373.38z"/>
	</g>
	<g>
		<path fill-rule="evenodd" clip-rule="evenodd" fill="#4BB89F" d="M-3635.906,1368.47l0.239,1.387l-2.653,2.987l-1.407-0.073
			C-3648.19,1369.477-3640.178,1360.455-3635.906,1368.47z"/>
		<path fill-rule="evenodd" clip-rule="evenodd" fill="#7FC8B8" d="M-3640.414,1370.874c-3.994-3.191-1.213-6.352,2.42-2.814
			C-3634.921,1371.049-3637.096,1373.526-3640.414,1370.874z"/>
	</g>
</g>
<g>
	<path fill-rule="evenodd" clip-rule="evenodd" fill="#A62A34" d="M-3837.387,1385.061c1.782,0,3.478,0.703,4.738,1.964
		s1.965,2.958,1.965,4.739c0,1.783-0.704,3.479-1.965,4.74c-1.261,1.262-2.956,1.962-4.738,1.962c-1.784,0-3.479-0.7-4.741-1.962
		c-1.261-1.261-1.963-2.957-1.963-4.74c0-1.781,0.702-3.479,1.963-4.739C-3840.866,1385.764-3839.171,1385.061-3837.387,1385.061
		L-3837.387,1385.061z M-3834.497,1388.875c-0.77-0.77-1.803-1.198-2.89-1.198c-1.09,0-2.122,0.429-2.892,1.198
		c-0.768,0.77-1.197,1.802-1.197,2.889c0,1.089,0.429,2.121,1.197,2.892c0.77,0.769,1.802,1.195,2.892,1.195
		c1.086,0,2.12-0.427,2.89-1.195c0.769-0.771,1.196-1.803,1.196-2.892C-3833.301,1390.677-3833.729,1389.645-3834.497,1388.875z"/>
	<path fill-rule="evenodd" clip-rule="evenodd" fill="#D84F50" d="M-3848.061,1404.892L-3848.061,1404.892
		c5.783,0,10.514-4.73,10.514-10.514v-0.588v-9.587v-0.784c0-0.511-0.419-0.929-0.931-0.929h-19.166
		c-0.511,0-0.931,0.418-0.931,0.929v0.784v9.587v0.588C-3858.574,1400.161-3853.843,1404.892-3848.061,1404.892z"/>
	<path fill-rule="evenodd" clip-rule="evenodd" fill="#A62A34" d="M-3841.147,1393.063c0,1.123-0.178,2.205-0.508,3.224
		c-0.186,0.572-0.42,1.126-0.698,1.652c-1.142,2.164-3.017,3.888-5.288,4.836c-1.24,0.517-2.598,0.802-4.019,0.802
		c-0.586,0-1.163-0.048-1.724-0.142c1.563,0.924,3.384,1.456,5.323,1.456c2.362,0,4.548-0.79,6.308-2.116
		c1.147-0.865,2.113-1.959,2.828-3.211c0.29-0.509,0.54-1.041,0.742-1.596c0.411-1.124,0.636-2.332,0.636-3.591v-0.588v-6.076
		v-1.673v-1.838v-0.784c0-0.511-0.419-0.929-0.931-0.929h-2.669v0.399v3.999v2.02v3.568V1393.063z"/>
	<path fill-rule="evenodd" clip-rule="evenodd" fill="#D84F50" d="M-3857.173,1404.892h18.224c0.771,0,1.403-0.631,1.403-1.402l0,0
		c0-0.771-0.631-1.401-1.403-1.401h-18.224c-0.77,0-1.401,0.63-1.401,1.401l0,0
		C-3858.574,1404.261-3857.942,1404.892-3857.173,1404.892z"/>
	<path fill-rule="evenodd" clip-rule="evenodd" fill="#DE7272" d="M-3855.206,1384.487L-3855.206,1384.487
		c0.974,0,1.771,0.799,1.771,1.771v6.344c0,0.974-0.797,1.77-1.771,1.77l0,0c-0.976,0-1.771-0.796-1.771-1.77v-6.344
		C-3856.978,1385.286-3856.182,1384.487-3855.206,1384.487z"/>
	<path fill-rule="evenodd" clip-rule="evenodd" fill="#FFFFFF" d="M-3857.041,1369.525h8.016c0.607,0,1.105-0.496,1.105-1.104l0,0
		c0-0.608-0.498-1.104-1.105-1.104h-10.782c-1.586,0-2.887-1.301-2.887-2.889l0,0c0-1.586,1.299-2.885,2.887-2.885h28.038
		c1.587,0,2.886,1.299,2.886,2.885l0,0c0,1.588-1.298,2.889-2.886,2.889h-9.78c-0.606,0-1.104,0.496-1.104,1.104l0,0
		c0,0.607,0.497,1.104,1.104,1.104h3.764c1.226,0,2.228,1.004,2.228,2.229l0,0c0,1.226-1.001,2.228-2.228,2.228h-6.224
		c-2.435,0-4.428,1.992-4.428,4.428v2.03c0,0.575-0.47,1.046-1.045,1.046l0,0c-0.576,0-1.047-0.471-1.047-1.046v-3.862
		c0-1.428-1.167-2.596-2.596-2.596h-3.916c-1.225,0-2.227-1.002-2.227-2.228l0,0
		C-3859.268,1370.529-3858.266,1369.525-3857.041,1369.525z"/>
</g>
<g>
	<path fill-rule="evenodd" clip-rule="evenodd" fill="#FFFFFF" d="M-3794.078,1291.993c1.052,0,1.911-0.857,1.911-1.911
		c0-1.052-0.859-1.911-1.911-1.911s-1.911,0.859-1.911,1.911C-3795.989,1291.136-3795.13,1291.993-3794.078,1291.993z"/>
	<path fill-rule="evenodd" clip-rule="evenodd" fill="#FFFFFF" d="M-3668.504,1314.067c1.054,0,1.911-0.861,1.911-1.914
		c0-1.052-0.857-1.912-1.911-1.912c-1.053,0-1.911,0.86-1.911,1.912C-3670.415,1313.206-3669.557,1314.067-3668.504,1314.067z"/>
	<path fill-rule="evenodd" clip-rule="evenodd" fill="#FFFFFF" d="M-3720.039,1170.106c1.054,0,1.911-0.859,1.911-1.912
		s-0.857-1.912-1.911-1.912c-1.052,0-1.911,0.859-1.911,1.912S-3721.091,1170.106-3720.039,1170.106z"/>
	<path fill-rule="evenodd" clip-rule="evenodd" fill="#FFFFFF" d="M-3870.161,1381.845c1.054,0,1.912-0.858,1.912-1.912
		c0-1.052-0.858-1.912-1.912-1.912c-1.053,0-1.911,0.86-1.911,1.912C-3872.072,1380.986-3871.214,1381.845-3870.161,1381.845z"/>
	<path fill-rule="evenodd" clip-rule="evenodd" fill="#FFFFFF" d="M-3884.543,1185.854c1.053,0,1.911-0.858,1.911-1.911
		s-0.858-1.912-1.911-1.912s-1.912,0.859-1.912,1.912S-3885.596,1185.854-3884.543,1185.854z"/>
	<circle fill-rule="evenodd" clip-rule="evenodd" fill="#FFFFFF" cx="-3796.78" cy="1168.755" r="0.869"/>
	<circle fill-rule="evenodd" clip-rule="evenodd" fill="#FFFFFF" cx="-3773.813" cy="1233.173" r="0.869"/>
	<path fill-rule="evenodd" clip-rule="evenodd" fill="#FFFFFF" d="M-3716.679,1197.071c0.48,0,0.871-0.391,0.871-0.869
		s-0.391-0.869-0.871-0.869c-0.478,0-0.867,0.391-0.867,0.869S-3717.156,1197.071-3716.679,1197.071z"/>
	<circle fill-rule="evenodd" clip-rule="evenodd" fill="#FFFFFF" cx="-3692.03" cy="1288.628" r="0.869"/>
	<circle fill-rule="evenodd" clip-rule="evenodd" fill="#FFFFFF" cx="-3628.732" cy="1227.571" r="0.869"/>
	<path fill-rule="evenodd" clip-rule="evenodd" fill="#FFFFFF" d="M-3786.698,1268.771c0.479,0,0.871-0.391,0.871-0.87
		c0-0.479-0.392-0.867-0.871-0.867c-0.478,0-0.867,0.389-0.867,0.867C-3787.565,1268.381-3787.176,1268.771-3786.698,1268.771z"/>
	<circle fill-rule="evenodd" clip-rule="evenodd" fill="#FFFFFF" cx="-3832.63" cy="1332.319" r="0.869"/>
	<circle fill-rule="evenodd" clip-rule="evenodd" fill="#FFFFFF" cx="-3891.447" cy="1380.493" r="0.869"/>
	<circle fill-rule="evenodd" clip-rule="evenodd" fill="#FFFFFF" cx="-3627.612" cy="1327.839" r="0.869"/>
	<circle fill-rule="evenodd" clip-rule="evenodd" fill="#FFFFFF" cx="-3612.488" cy="1406.821" r="0.869"/>
	<circle fill-rule="evenodd" clip-rule="evenodd" fill="#FFFFFF" cx="-3897.609" cy="1272.944" r="0.869"/>
	<circle fill-rule="evenodd" clip-rule="evenodd" fill="#FFFFFF" cx="-3842.153" cy="1222.53" r="0.869"/>
	<path fill-rule="evenodd" clip-rule="evenodd" fill="#FFFFFF" d="M-3747.487,1170.743c0.48,0,0.871-0.39,0.871-0.867
		c0-0.48-0.391-0.869-0.871-0.869c-0.478,0-0.868,0.389-0.868,0.869C-3748.355,1170.354-3747.965,1170.743-3747.487,1170.743z"/>
	<circle fill-rule="evenodd" clip-rule="evenodd" fill="#FFFFFF" cx="-3688.67" cy="1179.398" r="0.869"/>
</g>
<g>
	<path fill-rule="evenodd" clip-rule="evenodd" fill="#FFFFFF" d="M-3740.036,1306.007c1.053,0,1.912-0.857,1.912-1.911
		c0-1.052-0.859-1.911-1.912-1.911c-1.052,0-1.91,0.859-1.91,1.911C-3741.946,1305.149-3741.088,1306.007-3740.036,1306.007z"/>
	<path fill-rule="evenodd" clip-rule="evenodd" fill="#FFFFFF" d="M-3614.462,1328.081c1.054,0,1.911-0.861,1.911-1.914
		c0-1.052-0.857-1.912-1.911-1.912c-1.053,0-1.91,0.86-1.91,1.912C-3616.372,1327.22-3615.515,1328.081-3614.462,1328.081z"/>
	<path fill-rule="evenodd" clip-rule="evenodd" fill="#FFFFFF" d="M-3665.997,1184.12c1.055,0,1.912-0.859,1.912-1.912
		s-0.857-1.912-1.912-1.912c-1.052,0-1.91,0.859-1.91,1.912S-3667.049,1184.12-3665.997,1184.12z"/>
	<path fill-rule="evenodd" clip-rule="evenodd" fill="#FFFFFF" d="M-3715.333,1407.171c1.054,0,1.912-0.859,1.912-1.912
		s-0.858-1.912-1.912-1.912c-1.053,0-1.911,0.859-1.911,1.912S-3716.386,1407.171-3715.333,1407.171z"/>
	<path fill-rule="evenodd" clip-rule="evenodd" fill="#FFFFFF" d="M-3756.741,1228.372c1.053,0,1.91-0.859,1.91-1.911
		c0-1.053-0.857-1.913-1.91-1.913s-1.912,0.86-1.912,1.913C-3758.653,1227.513-3757.794,1228.372-3756.741,1228.372z"/>
	<circle fill-rule="evenodd" clip-rule="evenodd" fill="#FFFFFF" cx="-3742.737" cy="1182.769" r="0.869"/>
	<circle fill-rule="evenodd" clip-rule="evenodd" fill="#FFFFFF" cx="-3719.771" cy="1247.187" r="0.869"/>
	<circle fill-rule="evenodd" clip-rule="evenodd" fill="#FFFFFF" cx="-3662.636" cy="1210.216" r="0.869"/>
	<circle fill-rule="evenodd" clip-rule="evenodd" fill="#FFFFFF" cx="-3637.988" cy="1302.642" r="0.869"/>
	<circle fill-rule="evenodd" clip-rule="evenodd" fill="#FFFFFF" cx="-3574.69" cy="1241.585" r="0.869"/>
	<circle fill-rule="evenodd" clip-rule="evenodd" fill="#FFFFFF" cx="-3732.655" cy="1281.917" r="0.869"/>
	<path fill-rule="evenodd" clip-rule="evenodd" fill="#FFFFFF" d="M-3778.588,1347.202c0.479,0,0.87-0.39,0.87-0.869
		c0-0.479-0.391-0.869-0.87-0.869c-0.478,0-0.869,0.391-0.869,0.869C-3779.457,1346.813-3779.065,1347.202-3778.588,1347.202z"/>
	<circle fill-rule="evenodd" clip-rule="evenodd" fill="#FFFFFF" cx="-3736.618" cy="1405.818" r="0.868"/>
	<path fill-rule="evenodd" clip-rule="evenodd" fill="#FFFFFF" d="M-3680.556,1377.295c0.48,0,0.869-0.39,0.869-0.87
		c0-0.479-0.389-0.867-0.869-0.867c-0.477,0-0.869,0.389-0.869,0.867C-3681.425,1376.905-3681.032,1377.295-3680.556,1377.295z"/>
	<circle fill-rule="evenodd" clip-rule="evenodd" fill="#FFFFFF" cx="-3742.78" cy="1298.27" r="0.868"/>
	<circle fill-rule="evenodd" clip-rule="evenodd" fill="#FFFFFF" cx="-3788.11" cy="1236.543" r="0.869"/>
	<circle fill-rule="evenodd" clip-rule="evenodd" fill="#FFFFFF" cx="-3693.444" cy="1183.889" r="0.868"/>
	<circle fill-rule="evenodd" clip-rule="evenodd" fill="#FFFFFF" cx="-3634.628" cy="1193.412" r="0.869"/>
</g>
<g>
	<g>
		<path fill-rule="evenodd" clip-rule="evenodd" fill="#220D3F" d="M-3815.158,1243.368c-1.639,5.045-3.212,11.395-4.395,14.646
			c-9.084,25.013-6.294,26.188,13.336,24.707c7.887-0.594,15.552-0.621,30.429-2.879c2.154-0.313,1.118,0.762,2.209,1.813
			c1.092,1.051-8.366,8.475-8.366,8.475l-13.075,19.504c-13.46-1.4-37.511-6.542-46.109-12.74
			c-13.202-11.25,6.001-42.723,12.626-58.222c0.537-1.259,4.155-0.329,4.503-1.358
			C-3822.039,1238.069-3814.126,1240.196-3815.158,1243.368z"/>
		<path fill-rule="evenodd" clip-rule="evenodd" fill="#F9CBB9" stroke="#000000" stroke-width="0.2" stroke-miterlimit="10" d="
			M-3809.908,1238.61c2.521-1.787,5.201-2.151,6.192-2.188c1.313-0.049,0.036-4.957-4.35-2.855c0,0-2.299,0.174-2.576-0.796
			c-0.279-0.969,8.021-11.519,8.928-12.673c0.906-1.152-0.237-2.41-0.849-2.427c-0.612-0.018-1.904,1.67-3.688,3.694
			c-1.782,2.023-3.815,4.279-4.165,4.313c-0.35,0.033-0.796-0.395-0.252-1.887c0.546-1.49,3.859-9.586,3.619-10.379
			c-0.239-0.793-1.713-1.186-2.572-0.119c-0.861,1.068-3.897,9.369-4.624,10.308c-0.726,0.94-1.53,0.089-1.463-0.74
			c0.067-0.828,2.09-10.294,1.891-11.041c-0.195-0.749-1.716-1.099-2.322,0.238s-2.918,10.312-3.413,10.778
			c-0.493,0.467-1.491,0.221-1.831-1.582c-0.343-1.801-0.624-5.608-1.008-6.013c-0.38-0.404-2.083,0.311-2.071,2.212
			c0.01,1.9-0.126,6.613-0.232,7.31c-0.568,3.675-2.104,6.841-2.151,9.767c-0.02,1.059,0.252,2.137,0.739,3.154
			c1.153,2.408,3.519,4.49,6.156,5.232C-3815.37,1244.204-3813.378,1241.067-3809.908,1238.61z"/>
		<path fill-rule="evenodd" clip-rule="evenodd" fill="#E2B6A8" d="M-3809.908,1238.61c2.521-1.787,5.201-2.151,6.192-2.188
			c0.451-0.018,0.596-0.603,0.417-1.281c-0.719-0.27-4.16,0.55-7.353,1.992c-4.669,2.108-9.855,4.583-13.898-1.038
			c-1.049-1.459-1.447-5.533-1.093-7.291c-0.584,2.041-1.176,3.93-1.206,5.727c-0.018,1.059,0.254,2.136,0.741,3.154
			c-2.394,3.662,2.764,7.05,7.067,7.14c1.67,0.034,1.575-1.345,3.302-2.031C-3813.701,1241.985-3812.101,1240.161-3809.908,1238.61z
			"/>
		<path fill-rule="evenodd" clip-rule="evenodd" fill="#110523" d="M-3790.631,1299.138c-4.437,0.72-17.745-0.354-25.785-0.572
			c-18.604-0.51-29.21-5.439-28.164-21.399c-1.906,8.182-1.593,15.429,3.45,19.728c8.465,6.102,30.744,11.06,44.179,12.522
			c0.313-1.53,2.545-2.519,2.873-4.063C-3793.659,1303.181-3791.045,1301.161-3790.631,1299.138z"/>
	</g>
	<path fill="#564532" d="M-3787.933,1310.728c-11.782-20.653,5.428-42.101,9.401-56.664c3.972-14.564,3.574-43.425,3.604-54.68
		h72.988c0.03,11.255-0.367,40.115,3.604,54.68c3.971,14.563,21.181,36.011,9.399,56.664H-3787.933z"/>
	<path fill="#493A29" d="M-3755.205,1297.355l8.615-22.639l34.59,11.253c0,0-7.664-25.98-7.497-44.352
		c0.164-18.371-46.048-16.476-46.048-16.476l-9.706,0.271c-0.397,10.463-1.291,21.352-3.28,28.65
		c-0.149,0.537-0.317,1.087-0.497,1.646l0.141,0.337c0,0-4.869,30.585-10.166,41.309H-3755.205z"/>
	<path fill="#F9CBB9" d="M-3755.205,1236.853c0,0,1.679,17.828,2.209,23.652c0.529,5.826-0.707,12.535-9.71,18.713
		c-9.004,6.178-16.064,9.002-22.862,15.006c-5.137,4.535-7.284,8.385-8.343,10.681c-1.059,2.294-1.629,5.558,0.4,7.411
		c2.03,1.854,24.448,15.227,55.079,15.227c30.624,0,53.044-13.373,55.073-15.227c2.032-1.854,2.119-5.473,1.061-7.766
		c-1.061-2.295-3.866-5.791-9.004-10.326c-6.798-6.004-13.859-8.828-22.861-15.006s-10.238-12.887-9.708-18.713
		c0.529-5.824,2.208-23.652,2.208-23.652H-3755.205z"/>
	<g>
		<path fill="#E2B6A8" d="M-3723.802,1259.766c0.589-6.458,2.139-22.913,2.139-22.913h-33.542c0,0,1.549,16.455,2.141,22.913
			c5.18,6.339,11.466,9.124,14.633,9.126C-3735.271,1268.89-3728.985,1266.104-3723.802,1259.766z"/>
		<linearGradient id="SVGID_2_" gradientUnits="userSpaceOnUse" x1="-3738.4346" y1="1268.8916" x2="-3738.4316" y2="1268.8916">
			<stop  offset="0" style="stop-color:#FAD4AF"/>
			<stop  offset="1" style="stop-color:#F09E78"/>
		</linearGradient>
		<polygon fill="url(#SVGID_2_)" points="-3738.432,1268.892 -3738.432,1268.892 -3738.435,1268.892 		"/>
	</g>
	<g>
		<path fill="#F9CBB9" d="M-3709.58,1217.7c1.323-1.81,3.793-4.059,5.117-3.179c1.323,0.884,3.663,4.325,2.474,9.577
			c-1.192,5.252-4.105,8.387-5.959,9.797c-1.853,1.412-4.767,1.412-4.767,1.412L-3709.58,1217.7z"/>
		<path fill="#E2B6A8" d="M-3706.839,1214.98c-1.008,0.674-2.037,1.757-2.741,2.72l-3.135,17.607c0,0,2.914,0,4.767-1.412
			c0.16-0.121,0.335-0.271,0.51-0.421L-3706.839,1214.98z"/>
		<linearGradient id="SVGID_4_" gradientUnits="userSpaceOnUse" x1="-3775.2051" y1="1224.8164" x2="-3764.1533" y2="1224.8164">
			<stop  offset="0" style="stop-color:#FAD4AF"/>
			<stop  offset="1" style="stop-color:#F09E78"/>
		</linearGradient>
		<path fill="url(#SVGID_4_)" d="M-3767.287,1217.7c-1.325-1.81-3.794-4.059-5.117-3.179c-1.326,0.884-3.664,4.325-2.473,9.577
			s4.104,8.387,5.958,9.797c1.853,1.412,4.766,1.412,4.766,1.412L-3767.287,1217.7z"/>
		<path fill="#DBC09C" d="M-3770.028,1214.98c1.006,0.674,2.037,1.757,2.741,2.72l3.134,17.607c0,0-2.913,0-4.766-1.412
			c-0.16-0.121-0.336-0.271-0.51-0.421L-3770.028,1214.98z"/>
	</g>
	<path fill="#F9CBB9" d="M-3738.432,1168.538c-31.863,0-32.13,29.125-31.533,37.598c0.594,8.475,2.844,20.964,4.257,27.848
		c1.411,6.886,4.68,12.578,10.503,18.049c5.826,5.473,13.154,7.857,16.773,7.857h-0.003c3.618,0,10.946-2.385,16.771-7.857
		c5.825-5.471,9.092-11.163,10.504-18.049c1.41-6.884,3.66-19.373,4.256-27.848
		C-3706.307,1197.663-3706.576,1168.538-3738.432,1168.538z"/>
	<g>
		<path fill="#220D3F" d="M-3681.335,1304.104c-1.275-2.756-4.478-6.449-9.264-10.676c-4.165-3.676-8.491-6.222-13.075-8.918
			c-3.111-1.83-6.329-3.723-9.889-6.166c-0.08-0.055-0.15-0.111-0.229-0.169l-24.64,29.121h-0.003l-24.643-29.121
			c-0.078,0.058-0.146,0.114-0.229,0.169c-3.561,2.443-6.776,4.336-9.887,6.166c-4.585,2.696-8.912,5.242-13.075,8.918
			c-4.786,4.227-7.682,11.164-8.955,13.92c-1.244,2.697-3.482,9.529-1.078,11.722c2.116,1.931,26.766,9.532,57.87,9.532
			c31.1,0,58.393-3.87,60.509-5.801C-3675.52,1320.609-3680.092,1306.803-3681.335,1304.104z"/>
		<path fill="#110523" d="M-3701.143,1298.969c-0.397-0.86-4.7-17.368-5.097-17.632c-0.397-0.264-8.408-5.494-9.466-5.959
			c-1.059-0.463-2.007,1.025-2.007,1.025l-20.72,30.894l-20.725-30.894c0,0-0.947-1.488-2.006-1.025
			c-1.059,0.465-9.069,5.695-9.468,5.959c-0.084,0.055-0.347,0.855-0.711,2.081c-0.622,0.368-1.241,0.732-1.853,1.093
			c-1.765,1.037-3.49,2.053-5.183,3.119c-2.268,11.355-6.286,22.11-9.37,29.352c2.597,1.322,5.899,2.832,9.808,4.313
			c4.453-7.552,7.137-16.612,7.137-16.612c-0.622,6.677-2.491,12.799-4.415,17.604c1.935,0.677,3.995,1.337,6.168,1.96
			c3.666-6.963,5.871-15.753,7.183-25.445c5.796-0.881,11.362-1.777,11.362-1.777s-3.477,7.954-3.973,8.614
			c-0.496,0.665-0.132,0.962,0.396,1.358c0.53,0.397,15.646,2.637,15.646,2.637c0.003,0,15.116-2.239,15.646-2.637
			c0.529-0.396,0.895-0.693,0.397-1.358c-0.495-0.66-3.972-8.614-3.972-8.614s22.771,3.664,24.162,3.465
			C-3700.812,1300.292-3700.746,1299.829-3701.143,1298.969z"/>
		<path fill="#110523" d="M-3737.363,1308.192l-0.642-0.844c-4.623,3.513-4.623,4.275-4.623,4.525v16.636
			c0.354,0.012,0.704,0.032,1.06,0.042l-0.011-16.602C-3741.4,1311.472-3739.253,1309.627-3737.363,1308.192z"/>
		<path fill="#351B5E" d="M-3738.435,1309.634c0,0-15.115-4.666-15.646-5.064c-0.528-0.396-0.893-0.692-0.396-1.355
			c0.496-0.66,3.973-6.189,3.973-6.189s-22.772-0.928-24.163-1.125c-1.39-0.2-1.456-0.662-1.059-1.522s4.7-12.776,5.096-13.04
			c0.398-0.264,8.409-5.494,9.468-5.959c1.059-0.463,2.006,1.025,2.006,1.025l20.725,30.894l20.72-30.894
			c0,0,0.948-1.488,2.007-1.025c1.058,0.465,9.068,5.695,9.466,5.959c0.396,0.264,4.699,12.18,5.097,13.04
			c0.396,0.86,0.331,1.322-1.059,1.522c-1.391,0.197-24.162,1.125-24.162,1.125s3.477,5.529,3.972,6.189
			c0.497,0.663,0.132,0.959-0.397,1.355C-3723.318,1304.968-3738.432,1309.634-3738.435,1309.634z"/>
		<path fill="#110523" d="M-3761.162,1275.378c-1.059,0.465-9.069,5.695-9.468,5.959c-0.396,0.264-4.698,12.18-5.096,13.04
			s-0.331,1.322,1.059,1.522c0.716,0.102,7.075,0.395,13.091,0.658c0.808-6.747,1.214-13.887,1.402-21.117
			C-3760.47,1275.288-3760.811,1275.224-3761.162,1275.378z"/>
		<circle fill="#FFFFFF" cx="-3737.639" cy="1318.804" r="1.764"/>
	</g>
	<path fill="#E8BFAC" d="M-3738.307,1237.404c1.679,0,3.658-0.331,3.658-0.331s-0.719,1.719-3.657,2.293
		c-2.94-0.574-3.66-2.293-3.66-2.293S-3739.988,1237.404-3738.307,1237.404z"/>
	<g>
		<g>
			<path fill="#FFFFFF" d="M-3723.746,1216.024c-2.884,0.605-5.461,3.148-6.495,5.555c1.206,1.313,2.88,3.064,7.05,2.75
				c4.171-0.313,6.22-4.951,6.507-6.391C-3717.2,1217.091-3720.257,1215.646-3723.746,1216.024z"/>
			<path fill="#60390A" d="M-3719.891,1219.099c0.277,2.063-1.214,4.021-3.322,4.371c-2.109,0.349-4.043-1.045-4.317-3.109
				c-0.275-2.066,1.21-4.021,3.32-4.371S-3720.165,1217.032-3719.891,1219.099z"/>
			<path fill="#2B3238" d="M-3721.621,1219.384c0.153,1.129-0.662,2.203-1.816,2.393c-1.153,0.19-2.212-0.57-2.363-1.703
				c-0.15-1.129,0.666-2.199,1.816-2.393C-3722.828,1217.49-3721.77,1218.255-3721.621,1219.384z"/>
			<path fill="#C4CDD6" d="M-3724.21,1215.989c-2.11,0.35-3.596,2.305-3.32,4.371c0.013,0.113,0.053,0.217,0.077,0.324
				c1.077-0.74,3.668-2.22,7.353-2.396C-3720.71,1216.686-3722.392,1215.689-3724.21,1215.989z"/>
			<path fill="#FFFFFF" d="M-3720.529,1218.692c0.063,0.49-0.257,0.948-0.721,1.025c-0.461,0.076-0.89-0.26-0.954-0.749
				c-0.064-0.492,0.255-0.949,0.72-1.024C-3721.024,1217.867-3720.595,1218.202-3720.529,1218.692z"/>
			<path fill="#191E21" d="M-3731.242,1222.488c1.275-1.843,3.712-5.007,7.551-5.7c3.84-0.691,6.794,1.49,6.794,1.49l-0.724,2.07
				c0,0,1.094-1.158,1.646-1.877c0.551-0.718,1.479-1.884,1.479-1.884c-1.132,0.052-2.096-0.075-2.878-0.288
				c-0.776-0.212-3.399-1.389-6.554-0.764C-3727.079,1216.16-3729.576,1218.722-3731.242,1222.488z"/>
			<path fill="#E8BFAC" d="M-3727.563,1223.692c1.57,0.502,5.798,0.948,8.439-1.399
				C-3719.778,1223.238-3722.868,1225.697-3727.563,1223.692z"/>
		</g>
		<g>
			<path fill="#FFFFFF" d="M-3753.124,1216.024c2.887,0.605,5.463,3.148,6.497,5.555c-1.203,1.313-2.883,3.064-7.049,2.75
				c-4.172-0.313-6.219-4.951-6.508-6.391C-3759.67,1217.091-3756.613,1215.646-3753.124,1216.024z"/>
			<path fill="#60390A" d="M-3756.98,1219.099c-0.272,2.063,1.216,4.021,3.324,4.371c2.109,0.349,4.043-1.045,4.318-3.109
				c0.275-2.066-1.213-4.021-3.32-4.371C-3754.769,1215.64-3756.704,1217.032-3756.98,1219.099z"/>
			<path fill="#2B3238" d="M-3755.247,1219.384c-0.153,1.129,0.662,2.203,1.816,2.393c1.154,0.19,2.212-0.57,2.362-1.703
				c0.15-1.129-0.664-2.199-1.816-2.393C-3754.04,1217.49-3755.099,1218.255-3755.247,1219.384z"/>
			<path fill="#C4CDD6" d="M-3752.658,1215.989c2.107,0.35,3.596,2.305,3.32,4.371c-0.014,0.113-0.053,0.217-0.079,0.324
				c-1.076-0.74-3.667-2.22-7.351-2.396C-3756.16,1216.686-3754.478,1215.689-3752.658,1215.989z"/>
			<path fill="#FFFFFF" d="M-3756.339,1218.692c-0.065,0.49,0.257,0.948,0.721,1.025c0.461,0.076,0.889-0.26,0.952-0.749
				c0.064-0.492-0.253-0.949-0.719-1.024C-3755.846,1217.867-3756.274,1218.202-3756.339,1218.692z"/>
			<path fill="#191E21" d="M-3745.625,1222.488c-1.276-1.843-3.713-5.007-7.552-5.7c-3.841-0.691-6.791,1.49-6.791,1.49l0.721,2.07
				c0,0-1.095-1.158-1.646-1.877c-0.549-0.718-1.479-1.884-1.479-1.884c1.131,0.052,2.099-0.075,2.877-0.288
				c0.779-0.212,3.402-1.389,6.554-0.764C-3749.791,1216.16-3747.295,1218.722-3745.625,1222.488z"/>
			<path fill="#E8BFAC" d="M-3749.308,1223.692c-1.568,0.502-5.798,0.948-8.439-1.399
				C-3757.092,1223.238-3754,1225.697-3749.308,1223.692z"/>
		</g>
	</g>
	<path fill="#191E21" d="M-3764.957,1183.63l-3.653,34.024c0,0,0.305,0.456,0.815,1.144c0.17-0.328,0.332-0.672,0.488-1.022
		c4.291-5.605,8.572-18.653,8.572-18.653c0.112,1.451,1.037,4.084,1.867,6.059c0.551-22.053,11.313-33.355,11.313-33.355
		L-3764.957,1183.63z"/>
	<path fill="#68553A" d="M-3782.521,1319.435c5.687-7.895,9.223-19.828,9.223-19.828c-0.79,8.469-3.589,16.057-5.95,21.183
		c1.723,0.677,3.575,1.354,5.546,2.013c14.98-22.23,6.369-69.146,7.268-100.313c0.177-6.134,4.439-12.137,5.246-16.696
		c5.309-30.012,15.43-35.401,21.65-36.195c0,0-5.825-7.283-16.965-1.589c-11.139,5.692-16,19.197-18.454,32.173
		c-2.451,12.973-3.771,41.967-4.166,67.123c-0.283,18.027-16.892,35.545-21.268,45.313
		C-3798.367,1313.822-3786.464,1317.725-3782.521,1319.435z"/>
	<path opacity="0.1" fill="#FFFFFF" d="M-3703.585,1187.56c-13.772,6.303-25.82,6-25.82,6c8.96-4.143,16.037-10.498,20.962-15.967
		C-3706.663,1180.295-3704.967,1183.586-3703.585,1187.56z M-3769.498,1177.103c-1.636,3.033-2.958,6.536-3.993,10.65
		c13.592,6.102,25.391,5.807,25.391,5.807C-3757.328,1189.292-3764.558,1182.679-3769.498,1177.103z"/>
	<path fill="#191E21" d="M-3706.961,1231.132c0,0.842-0.564,1.529-1.261,1.529c-0.698,0-1.264-0.688-1.264-1.529
		c0-0.843,0.565-1.527,1.264-1.527C-3707.525,1229.604-3706.961,1230.289-3706.961,1231.132z"/>
	<path fill="#191E21" d="M-3711.326,1212.692c0,0-0.903-7.482-2.079-13.309C-3711.073,1204.349-3711.013,1208.255-3711.326,1212.692
		z"/>
	<g>
		<path fill="#191E21" d="M-3731.04,1210.021c0,0,10.863-2.861,19.348,2.395c-3.159-3.001-6.043-4.178-9.319-5.072
			c-3.273-0.895-6.816-0.823-7.775-0.392C-3729.744,1207.386-3730.814,1208.651-3731.04,1210.021z"/>
		<path fill="#191E21" d="M-3745.75,1210.706c0,0-10.412-4.211-19.491-0.07c3.511-2.578,6.52-3.381,9.884-3.854
			c3.359-0.475,6.868,0.044,7.762,0.594C-3746.7,1207.927-3745.8,1209.317-3745.75,1210.706z"/>
	</g>
	<g>
		<path fill="#73102A" d="M-3736.625,1247.325c5.604-0.749,7.297-5.338,7.014-6.66c-0.282-1.324-5.297,0.307-7.819,0.645
			c-2.521,0.337-7.79,0.082-7.715,1.434C-3745.068,1244.094-3742.229,1248.075-3736.625,1247.325z"/>
		<path fill="#FFFFFF" d="M-3730.674,1241.124c0.428-0.311,0.624-0.6,0.65-0.863c-1.294-0.466-5.258,0.761-7.407,1.049
			c-2.128,0.283-6.21,0.147-7.388,0.909c0.037,0.274,0.284,0.514,0.82,0.688c1.848,0.326,4.102,0.407,6.787,0.049
			C-3734.525,1242.596-3732.371,1241.924-3730.674,1241.124z"/>
		<path fill="#CC5050" d="M-3742.462,1246.165c1.4,0.891,3.343,1.494,5.837,1.16c2.492-0.332,4.209-1.426,5.325-2.652
			c-1.396-0.879-3.339-1.469-5.833-1.135S-3741.344,1244.952-3742.462,1246.165z"/>
	</g>
	<g>
		<g>
			<linearGradient id="SVGID_6_" gradientUnits="userSpaceOnUse" x1="-3743.0625" y1="1216.6055" x2="-3740.3867" y2="1216.6055">
				<stop  offset="0" style="stop-color:#1C242B"/>
				<stop  offset="1" style="stop-color:#343D45"/>
			</linearGradient>
			<path fill="url(#SVGID_6_)" d="M-3742.897,1217.167l-0.165-0.38c0.051-0.021,1.229-0.534,1.607-0.619
				c0.374-0.083,1.018-0.124,1.044-0.124l0.024,0.414c-0.007,0-0.636,0.039-0.979,0.115
				C-3741.646,1216.637-3742.567,1217.022-3742.897,1217.167z"/>
		</g>
		<g>
			<linearGradient id="SVGID_8_" gradientUnits="userSpaceOnUse" x1="-3736.2295" y1="1216.6055" x2="-3733.5537" y2="1216.6055">
				<stop  offset="0" style="stop-color:#1C242B"/>
				<stop  offset="1" style="stop-color:#343D45"/>
			</linearGradient>
			<path fill="url(#SVGID_8_)" d="M-3733.719,1217.167c-0.33-0.145-1.251-0.53-1.532-0.594c-0.343-0.076-0.972-0.115-0.979-0.115
				l0.024-0.414c0.026,0,0.67,0.041,1.044,0.124c0.379,0.085,1.557,0.598,1.607,0.619L-3733.719,1217.167z"/>
		</g>
		<path fill="#38263A" d="M-3735.103,1215.972c-0.263-0.078-0.666-0.18-0.974-0.18h-2.23h-2.231c-0.31,0-0.713,0.102-0.978,0.18
			c-0.17,0.055-0.245,0.149-0.2,0.277l0.142,0.406c0.037,0.106,0.134,0.158,0.274,0.119c0.25-0.074,0.571-0.153,0.762-0.153h2.231
			h2.23c0.189,0,0.51,0.079,0.76,0.153c0.141,0.039,0.236-0.013,0.274-0.119l0.142-0.406
			C-3734.855,1216.121-3734.931,1216.026-3735.103,1215.972z"/>
		<path fill="#38263A" d="M-3711.394,1215.878c-0.328-0.069-0.414-0.086-1.037-0.207c-0.622-0.121-1.608-0.796-2.272-1.305l0,0
			c-0.756-0.689-1.592-1.198-2.363-1.57c-1.549-0.744-3.536-1.154-5.597-1.154c-2.562,0-5.188,0.6-7.803,1.779
			c-2.989,1.35-4.654,4.688-4.142,8.306c0.55,3.88,3.929,8.411,11.644,8.411c3.18,0,5.896-1.104,7.852-3.195
			c2.303-2.461,2.973-5.558,2.847-7.462c-0.005-0.086-0.02-0.165-0.026-0.249l0.005,0.001c-0.019-0.248,0.08-0.587,0.168-0.812
			c0.085-0.225,0.422-0.45,0.82-0.58c0.399-0.129,0.482-0.397,0.482-0.535c0-0.139,0-0.182,0-0.666
			S-3711.066,1215.947-3711.394,1215.878z M-3715.719,1226.376c-1.796,1.918-4.3,2.932-7.245,2.932
			c-7.183,0-10.317-4.146-10.82-7.697c-0.462-3.248,1.01-6.236,3.659-7.434c2.507-1.131,5.02-1.703,7.462-1.703
			c1.938,0,3.798,0.38,5.236,1.07c2.697,1.297,4.154,3.311,4.333,5.992C-3712.969,1221.411-3713.732,1224.254-3715.719,1226.376z"/>
		<path fill="#38263A" d="M-3765.8,1216.64c0,0.484,0,0.527,0,0.666c0,0.138,0.085,0.406,0.481,0.535
			c0.397,0.13,0.735,0.355,0.822,0.58c0.086,0.225,0.186,0.563,0.165,0.812l0.008-0.001c-0.009,0.084-0.021,0.163-0.027,0.249
			c-0.126,1.904,0.544,5.001,2.846,7.462c1.957,2.091,4.672,3.195,7.854,3.195c7.714,0,11.093-4.531,11.643-8.411
			c0.514-3.618-1.15-6.956-4.141-8.306c-2.614-1.18-5.241-1.779-7.804-1.779c-2.059,0-4.045,0.41-5.595,1.154
			c-0.772,0.372-1.609,0.881-2.364,1.57l0,0c-0.664,0.509-1.649,1.184-2.271,1.305c-0.623,0.121-0.709,0.138-1.038,0.207
			S-3765.8,1216.155-3765.8,1216.64z M-3763.522,1219.536c0.179-2.682,1.637-4.695,4.333-5.992c1.438-0.69,3.299-1.07,5.236-1.07
			c2.443,0,4.954,0.572,7.462,1.703c2.649,1.197,4.121,4.186,3.662,7.434c-0.505,3.551-3.64,7.697-10.822,7.697
			c-2.946,0-5.452-1.014-7.246-2.932C-3762.884,1224.254-3763.646,1221.411-3763.522,1219.536z"/>
	</g>
	<path fill="#68553A" d="M-3702.984,1189.391c-4.534-14.808-13.471-20.853-16.513-22.44c-2.694-1.405-6.403-1.766-10.179-1.324
		c-5.275-5.912-15.907-7.855-25.56-2.473c-9.654,5.385-15.591,12.623-18.648,26.237c-2.836,12.616,0.851,25.966,0.851,25.966
		s4.048,3.291,4.71,4.371c0.362-0.568,0.703-1.248,1.017-1.952c4.291-5.605,8.572-18.653,8.572-18.653
		c0.175,2.295,2.384,7.546,3.047,8.473c0.661,0.927,3.087,1.941,3.087,1.941c0.134-2.736,1.192-6.973,1.192-6.973
		s5.386,6.533,8.165,9.003c2.78,2.47,7.986,3.414,7.986,3.414s-0.264-3.062-0.397-6.282c0.838,1.279,3.752,3.088,5.34,3.088
		c-1.853-3.752-3.44-13.063-2.988-18.492c2.384,10.063,8.408,16.353,16.484,19.398c-0.333-1.723-1.318-5.032-1.318-5.032
		c2.511,2.78,6.811,5.032,6.811,5.032s1.192,4.543,2.78,7.035c0.663-1.08,4.708-4.371,4.708-4.371
		S-3700.27,1202.033-3702.984,1189.391z"/>
</g>
<path fill-rule="evenodd" clip-rule="evenodd" fill="#EF8871" d="M-3711.538,1397.79c0,0,4.862-3.252,7.479-4.824
	c2.62-1.569,5.389-0.898,7.032,0.076c1.646,0.973,8.903,6.826,10.026,8.016c1.121,1.184-5.389,3.805-6.06,3.805
	C-3693.733,1404.862-3711.538,1397.79-3711.538,1397.79z"/>
<path fill-rule="evenodd" clip-rule="evenodd" fill="#0C0E0E" d="M-3820.864,1409.05h157.205c2.417,0,4.392-1.976,4.392-4.392l0,0
	c0-2.417-1.977-4.392-4.392-4.392h-157.205c-2.415,0-4.39,1.979-4.39,4.392l0,0
	C-3825.254,1407.071-3823.279,1409.05-3820.864,1409.05z"/>
<path fill-rule="evenodd" clip-rule="evenodd" fill="#0C0E0E" d="M-3666.54,1315.909h-48.105h-55.231h-48.104
	c-2.254,0-3.818,1.843-3.479,4.095l11.573,76.874c0.341,2.252,2.46,4.094,4.714,4.094h22.487h80.851h22.485
	c2.251,0,4.374-1.842,4.712-4.094l11.574-76.874C-3662.724,1317.752-3664.289,1315.909-3666.54,1315.909z"/>
<path fill-rule="evenodd" clip-rule="evenodd" fill="#1C1D1D" d="M-3669.908,1319.544h-45.965h-52.775h-45.966
	c-2.152,0-3.646,1.76-3.324,3.912l11.062,73.454c0.324,2.153,2.35,3.913,4.501,3.913h21.487h77.254h21.488
	c2.152,0,4.177-1.76,4.501-3.913l11.059-73.454C-3666.263,1321.304-3667.757,1319.544-3669.908,1319.544z"/>
<path fill-rule="evenodd" clip-rule="evenodd" fill="#0C0E0E" d="M-3809.714,1378.073l2.837,18.837
	c0.324,2.153,2.35,3.913,4.501,3.913h21.487h77.254h21.488c2.152,0,4.177-1.76,4.501-3.913l11.059-73.454
	c0.26-1.73-0.653-3.205-2.138-3.719C-3685.288,1348.312-3725.991,1395.112-3809.714,1378.073z"/>
<path fill-rule="evenodd" clip-rule="evenodd" fill="#0C0E0E" d="M-3742.261,1381.296c8.865,0,16.095-6.037,16.095-13.436
	c0-7.4-7.229-13.434-16.095-13.434s-16.096,6.033-16.096,13.434C-3758.356,1375.259-3751.126,1381.296-3742.261,1381.296z"/>
<path fill-rule="evenodd" clip-rule="evenodd" fill="#FFFFFF" d="M-3742.261,1357.65c4.503,0,8.437,2.032,10.558,5.058
	l-18.712,12.762c-2.501-1.869-4.077-4.584-4.077-7.609C-3754.492,1362.224-3749.016,1357.65-3742.261,1357.65L-3742.261,1357.65z
	 M-3732.325,1373.814l-5.621-3.093l-9.37,6.436c1.539,0.586,3.252,0.912,5.056,0.912
	C-3738.17,1378.069-3734.547,1376.391-3732.325,1373.814z"/>
<g>
	<path fill-rule="evenodd" clip-rule="evenodd" fill="#0C0E0E" d="M-3867.279,1412.542h250.664c3.146,0,5.726,2.575,5.726,5.727l0,0
		c0,3.147-2.579,5.723-5.726,5.723h-250.664c-3.149,0-5.726-2.575-5.726-5.723l0,0
		C-3873.005,1415.117-3870.429,1412.542-3867.279,1412.542z"/>
	<path fill-rule="evenodd" clip-rule="evenodd" fill="#BE865E" d="M-3879.466,1403.663h275.037c4.017,0,7.302,3.285,7.302,7.301l0,0
		c0,4.018-3.288,7.305-7.302,7.305h-275.037c-4.017,0-7.302-3.287-7.302-7.305l0,0
		C-3886.768,1406.948-3883.482,1403.663-3879.466,1403.663z"/>
	<rect x="-3712.761" y="1403.663" fill-rule="evenodd" clip-rule="evenodd" fill="#915E40" width="15.195" height="14.605"/>
	<rect x="-3689.673" y="1403.663" fill-rule="evenodd" clip-rule="evenodd" fill="#915E40" width="7.894" height="14.605"/>
	<rect x="-3673.491" y="1403.663" fill-rule="evenodd" clip-rule="evenodd" fill="#915E40" width="3.946" height="14.605"/>
	<rect x="-3656.029" y="1403.663" fill-rule="evenodd" clip-rule="evenodd" fill="#915E40" width="16.998" height="14.605"/>
	<rect x="-3626.219" y="1403.663" fill-rule="evenodd" clip-rule="evenodd" fill="#915E40" width="8.498" height="14.605"/>
	<path fill-rule="evenodd" clip-rule="evenodd" fill="#D49D80" d="M-3878.876,1406.034h133.675c2.387,0,4.339,1.954,4.339,4.34l0,0
		c0,2.389-1.952,4.342-4.339,4.342h-133.675c-2.386,0-4.339-1.953-4.339-4.342l0,0
		C-3883.215,1407.988-3881.262,1406.034-3878.876,1406.034z"/>
</g>
<path opacity="0.1" fill="#FFFFFF" d="M-3706.761,1181.445c-12.645,5.785-23.704,5.506-23.704,5.506
	c8.226-3.803,14.722-9.637,19.244-14.658C-3709.585,1174.774-3708.028,1177.796-3706.761,1181.445z M-3767.275,1171.843
	c-1.501,2.784-2.716,6.001-3.666,9.778c12.479,5.603,23.313,5.33,23.313,5.33
	C-3756.102,1183.033-3762.74,1176.962-3767.275,1171.843z"/>
</svg>
